<svg width="86" height="79" viewBox="0 0 86 79" fill="none" xmlns="http://www.w3.org/2000/svg">
<rect x="3" width="80" height="79" rx="20" fill="#0F172A"/>
<path d="M42.5003 70C42.5003 70 66.8337 58 66.8337 40V19L42.5003 10L18.167 19V40C18.167 58 42.5003 70 42.5003 70Z" fill="#0F172A" stroke="white" stroke-width="5" stroke-linecap="round" stroke-linejoin="round"/>
<mask id="path-3-outside-1_396_2" maskUnits="userSpaceOnUse" x="10" y="21" width="64" height="38" fill="black">
<rect fill="white" x="10" y="21" width="64" height="38"/>
<path d="M26.647 54.4C24.4604 54.4 22.367 54.0933 20.367 53.48C18.367 52.84 16.7804 52.0267 15.607 51.04L17.407 47C18.527 47.88 19.9137 48.6133 21.567 49.2C23.2204 49.7867 24.9137 50.08 26.647 50.08C28.1137 50.08 29.3004 49.92 30.207 49.6C31.1137 49.28 31.7804 48.8533 32.207 48.32C32.6337 47.76 32.847 47.1333 32.847 46.44C32.847 45.5867 32.5404 44.9067 31.927 44.4C31.3137 43.8667 30.5137 43.4533 29.527 43.16C28.567 42.84 27.487 42.5467 26.287 42.28C25.1137 42.0133 23.927 41.7067 22.727 41.36C21.5537 40.9867 20.4737 40.52 19.487 39.96C18.527 39.3733 17.7404 38.6 17.127 37.64C16.5137 36.68 16.207 35.4533 16.207 33.96C16.207 32.44 16.607 31.0533 17.407 29.8C18.2337 28.52 19.4737 27.5067 21.127 26.76C22.807 25.9867 24.927 25.6 27.487 25.6C29.167 25.6 30.8337 25.8133 32.487 26.24C34.1404 26.6667 35.5804 27.28 36.807 28.08L35.167 32.12C33.9137 31.3733 32.6204 30.8267 31.287 30.48C29.9537 30.1067 28.6737 29.92 27.447 29.92C26.007 29.92 24.8337 30.0933 23.927 30.44C23.047 30.7867 22.3937 31.24 21.967 31.8C21.567 32.36 21.367 33 21.367 33.72C21.367 34.5733 21.6604 35.2667 22.247 35.8C22.8604 36.3067 23.647 36.7067 24.607 37C25.5937 37.2933 26.687 37.5867 27.887 37.88C29.087 38.1467 30.2737 38.4533 31.447 38.8C32.647 39.1467 33.727 39.6 34.687 40.16C35.6737 40.72 36.4604 41.48 37.047 42.44C37.6604 43.4 37.967 44.6133 37.967 46.08C37.967 47.5733 37.5537 48.96 36.727 50.24C35.927 51.4933 34.687 52.5067 33.007 53.28C31.327 54.0267 29.207 54.4 26.647 54.4ZM45.1233 54V26H58.2433C61.6033 26 64.1633 26.6667 65.9233 28C67.6833 29.3067 68.5633 31.0667 68.5633 33.28C68.5633 34.7733 68.2166 36.0533 67.5233 37.12C66.8299 38.16 65.8966 38.9733 64.7233 39.56C63.5766 40.12 62.3233 40.4 60.9633 40.4L61.6833 38.96C63.2566 38.96 64.6699 39.2533 65.9233 39.84C67.1766 40.4 68.1633 41.2267 68.8833 42.32C69.6299 43.4133 70.0033 44.7733 70.0033 46.4C70.0033 48.8 69.0833 50.6667 67.2433 52C65.4033 53.3333 62.6699 54 59.0433 54H45.1233ZM50.3233 49.92H58.7233C60.6699 49.92 62.1633 49.6 63.2033 48.96C64.2433 48.32 64.7633 47.2933 64.7633 45.88C64.7633 44.4933 64.2433 43.48 63.2033 42.84C62.1633 42.1733 60.6699 41.84 58.7233 41.84H49.9233V37.8H57.6833C59.4966 37.8 60.8833 37.48 61.8433 36.84C62.8299 36.2 63.3233 35.24 63.3233 33.96C63.3233 32.6533 62.8299 31.68 61.8433 31.04C60.8833 30.4 59.4966 30.08 57.6833 30.08H50.3233V49.92Z"/>
</mask>
<path d="M26.647 54.4C24.4604 54.4 22.367 54.0933 20.367 53.48C18.367 52.84 16.7804 52.0267 15.607 51.04L17.407 47C18.527 47.88 19.9137 48.6133 21.567 49.2C23.2204 49.7867 24.9137 50.08 26.647 50.08C28.1137 50.08 29.3004 49.92 30.207 49.6C31.1137 49.28 31.7804 48.8533 32.207 48.32C32.6337 47.76 32.847 47.1333 32.847 46.44C32.847 45.5867 32.5404 44.9067 31.927 44.4C31.3137 43.8667 30.5137 43.4533 29.527 43.16C28.567 42.84 27.487 42.5467 26.287 42.28C25.1137 42.0133 23.927 41.7067 22.727 41.36C21.5537 40.9867 20.4737 40.52 19.487 39.96C18.527 39.3733 17.7404 38.6 17.127 37.64C16.5137 36.68 16.207 35.4533 16.207 33.96C16.207 32.44 16.607 31.0533 17.407 29.8C18.2337 28.52 19.4737 27.5067 21.127 26.76C22.807 25.9867 24.927 25.6 27.487 25.6C29.167 25.6 30.8337 25.8133 32.487 26.24C34.1404 26.6667 35.5804 27.28 36.807 28.08L35.167 32.12C33.9137 31.3733 32.6204 30.8267 31.287 30.48C29.9537 30.1067 28.6737 29.92 27.447 29.92C26.007 29.92 24.8337 30.0933 23.927 30.44C23.047 30.7867 22.3937 31.24 21.967 31.8C21.567 32.36 21.367 33 21.367 33.72C21.367 34.5733 21.6604 35.2667 22.247 35.8C22.8604 36.3067 23.647 36.7067 24.607 37C25.5937 37.2933 26.687 37.5867 27.887 37.88C29.087 38.1467 30.2737 38.4533 31.447 38.8C32.647 39.1467 33.727 39.6 34.687 40.16C35.6737 40.72 36.4604 41.48 37.047 42.44C37.6604 43.4 37.967 44.6133 37.967 46.08C37.967 47.5733 37.5537 48.96 36.727 50.24C35.927 51.4933 34.687 52.5067 33.007 53.28C31.327 54.0267 29.207 54.4 26.647 54.4ZM45.1233 54V26H58.2433C61.6033 26 64.1633 26.6667 65.9233 28C67.6833 29.3067 68.5633 31.0667 68.5633 33.28C68.5633 34.7733 68.2166 36.0533 67.5233 37.12C66.8299 38.16 65.8966 38.9733 64.7233 39.56C63.5766 40.12 62.3233 40.4 60.9633 40.4L61.6833 38.96C63.2566 38.96 64.6699 39.2533 65.9233 39.84C67.1766 40.4 68.1633 41.2267 68.8833 42.32C69.6299 43.4133 70.0033 44.7733 70.0033 46.4C70.0033 48.8 69.0833 50.6667 67.2433 52C65.4033 53.3333 62.6699 54 59.0433 54H45.1233ZM50.3233 49.92H58.7233C60.6699 49.92 62.1633 49.6 63.2033 48.96C64.2433 48.32 64.7633 47.2933 64.7633 45.88C64.7633 44.4933 64.2433 43.48 63.2033 42.84C62.1633 42.1733 60.6699 41.84 58.7233 41.84H49.9233V37.8H57.6833C59.4966 37.8 60.8833 37.48 61.8433 36.84C62.8299 36.2 63.3233 35.24 63.3233 33.96C63.3233 32.6533 62.8299 31.68 61.8433 31.04C60.8833 30.4 59.4966 30.08 57.6833 30.08H50.3233V49.92Z" fill="#EA661A"/>
<path d="M20.367 53.48L19.2089 57.0992L19.2309 57.1062L19.2529 57.113L20.367 53.48ZM15.607 51.04L12.136 49.4935L10.9715 52.107L13.1614 53.9484L15.607 51.04ZM17.407 47L19.7548 44.012L15.9205 40.9993L13.936 45.4535L17.407 47ZM21.567 49.2L22.8378 45.6188V45.6188L21.567 49.2ZM30.207 49.6L28.9423 46.0166V46.0166L30.207 49.6ZM32.207 48.32L35.1743 50.6938L35.2024 50.6587L35.2297 50.623L32.207 48.32ZM31.927 44.4L29.4336 47.2675L29.4698 47.299L29.5069 47.3297L31.927 44.4ZM29.527 43.16L28.3254 46.765L28.3844 46.7847L28.4441 46.8024L29.527 43.16ZM26.287 42.28L25.4449 45.9855L25.4538 45.9875L25.4627 45.9895L26.287 42.28ZM22.727 41.36L21.5749 44.9811L21.6234 44.9966L21.6724 45.0107L22.727 41.36ZM19.487 39.96L17.5055 43.2025L17.5579 43.2345L17.6113 43.2648L19.487 39.96ZM17.127 37.64L13.9248 39.6859V39.6859L17.127 37.64ZM17.407 29.8L14.2149 27.7384L14.2094 27.7469L14.2039 27.7555L17.407 29.8ZM21.127 26.76L22.6911 30.2232L22.7035 30.2176L22.716 30.2118L21.127 26.76ZM32.487 26.24L31.5375 29.9195L31.5375 29.9195L32.487 26.24ZM36.807 28.08L40.328 29.5093L41.5058 26.6077L38.8829 24.8971L36.807 28.08ZM35.167 32.12L33.2222 35.3846L37.0236 37.6493L38.688 33.5493L35.167 32.12ZM31.287 30.48L30.2624 34.1393L30.2965 34.1488L30.3308 34.1577L31.287 30.48ZM23.927 30.44L22.5699 26.8906L22.552 26.8974L22.5342 26.9044L23.927 30.44ZM21.967 31.8L18.9444 29.497L18.9089 29.5436L18.8748 29.5913L21.967 31.8ZM22.247 35.8L19.6909 38.6118L19.7575 38.6723L19.8269 38.7297L22.247 35.8ZM24.607 37L23.4966 40.6341L23.5104 40.6383L23.5241 40.6424L24.607 37ZM27.887 37.88L26.9847 41.5713L27.0236 41.5808L27.0627 41.5895L27.887 37.88ZM31.447 38.8L30.3703 42.4443L30.3813 42.4475L30.3924 42.4507L31.447 38.8ZM34.687 40.16L32.7723 43.4424L32.7918 43.4537L32.8113 43.4648L34.687 40.16ZM37.047 42.44L33.8046 44.4215L33.8244 44.4539L33.8448 44.4859L37.047 42.44ZM36.727 50.24L33.5349 48.1784L33.5294 48.1869L33.5239 48.1955L36.727 50.24ZM33.007 53.28L34.5504 56.7525L34.5732 56.7423L34.596 56.7318L33.007 53.28ZM26.647 54.4V50.6C24.8208 50.6 23.1041 50.3447 21.4812 49.847L20.367 53.48L19.2529 57.113C21.63 57.842 24.0999 58.2 26.647 58.2V54.4ZM20.367 53.48L21.5252 49.8608C19.8334 49.3194 18.7351 48.7055 18.0527 48.1316L15.607 51.04L13.1614 53.9484C14.8256 55.3478 16.9006 56.3606 19.2089 57.0992L20.367 53.48ZM15.607 51.04L19.0781 52.5865L20.8781 48.5465L17.407 47L13.936 45.4535L12.136 49.4935L15.607 51.04ZM17.407 47L15.0593 49.988C16.5688 51.1741 18.3407 52.0873 20.2963 52.7812L21.567 49.2L22.8378 45.6188C21.4867 45.1393 20.4852 44.5859 19.7548 44.012L17.407 47ZM21.567 49.2L20.2963 52.7812C22.3526 53.5109 24.4754 53.88 26.647 53.88V50.08V46.28C25.352 46.28 24.0881 46.0624 22.8378 45.6188L21.567 49.2ZM26.647 50.08V53.88C28.3424 53.88 30.0041 53.7013 31.4717 53.1834L30.207 49.6L28.9423 46.0166C28.5966 46.1387 27.885 46.28 26.647 46.28V50.08ZM30.207 49.6L31.4717 53.1834C32.7872 52.7191 34.1586 51.9635 35.1743 50.6938L32.207 48.32L29.2397 45.9462C29.323 45.8421 29.377 45.8148 29.3386 45.8394C29.2968 45.8662 29.1771 45.9338 28.9423 46.0166L30.207 49.6ZM32.207 48.32L35.2297 50.623C36.1522 49.4121 36.647 47.9791 36.647 46.44H32.847H29.047C29.047 46.39 29.0559 46.3048 29.0898 46.2054C29.1234 46.1066 29.1651 46.0424 29.1844 46.017L32.207 48.32ZM32.847 46.44H36.647C36.647 44.5473 35.9044 42.7567 34.3472 41.4703L31.927 44.4L29.5069 47.3297C29.3961 47.2381 29.2542 47.0767 29.153 46.8522C29.0552 46.6353 29.047 46.4747 29.047 46.44H32.847ZM31.927 44.4L34.4205 41.5325C33.3039 40.5616 31.9827 39.9257 30.6099 39.5176L29.527 43.16L28.4441 46.8024C29.0447 46.981 29.3235 47.1718 29.4336 47.2675L31.927 44.4ZM29.527 43.16L30.7287 39.555C29.6219 39.1861 28.4129 38.8597 27.1114 38.5705L26.287 42.28L25.4627 45.9895C26.5612 46.2336 27.5122 46.4939 28.3254 46.765L29.527 43.16ZM26.287 42.28L27.1292 38.5745C26.0298 38.3246 24.914 38.0364 23.7817 37.7093L22.727 41.36L21.6724 45.0107C22.94 45.3769 24.1976 45.702 25.4449 45.9855L26.287 42.28ZM22.727 41.36L23.8792 37.7389C22.9362 37.4388 22.1013 37.0744 21.3627 36.6552L19.487 39.96L17.6113 43.2648C18.8461 43.9656 20.1712 44.5345 21.5749 44.9811L22.727 41.36ZM19.487 39.96L21.4685 36.7175C21.0074 36.4357 20.6359 36.0741 20.3293 35.5941L17.127 37.64L13.9248 39.6859C14.8448 41.1259 16.0466 42.3109 17.5055 43.2025L19.487 39.96ZM17.127 37.64L20.3293 35.5941C20.2104 35.408 20.007 34.9496 20.007 33.96H16.207H12.407C12.407 35.9571 12.817 37.952 13.9248 39.6859L17.127 37.64ZM16.207 33.96H20.007C20.007 33.1474 20.209 32.473 20.6101 31.8445L17.407 29.8L14.2039 27.7555C13.0051 29.6337 12.407 31.7326 12.407 33.96H16.207ZM17.407 29.8L20.5992 31.8616C20.959 31.3044 21.5752 30.7271 22.6911 30.2232L21.127 26.76L19.563 23.2968C17.3722 24.2862 15.5084 25.7355 14.2149 27.7384L17.407 29.8ZM21.127 26.76L22.716 30.2118C23.7448 29.7383 25.2778 29.4 27.487 29.4V25.6V21.8C24.5762 21.8 21.8693 22.2351 19.5381 23.3081L21.127 26.76ZM27.487 25.6V29.4C28.8415 29.4 30.1892 29.5715 31.5375 29.9195L32.487 26.24L33.4366 22.5605C31.4782 22.0552 29.4926 21.8 27.487 21.8V25.6ZM32.487 26.24L31.5375 29.9195C32.8558 30.2597 33.9025 30.7225 34.7312 31.2629L36.807 28.08L38.8829 24.8971C37.2582 23.8375 35.4249 23.0737 33.4366 22.5605L32.487 26.24ZM36.807 28.08L33.2861 26.6507L31.6461 30.6907L35.167 32.12L38.688 33.5493L40.328 29.5093L36.807 28.08ZM35.167 32.12L37.1119 28.8554C35.5684 27.9359 33.9439 27.2444 32.2432 26.8023L31.287 30.48L30.3308 34.1577C31.2968 34.4089 32.259 34.8108 33.2222 35.3846L35.167 32.12ZM31.287 30.48L32.3116 26.8207C30.6869 26.3658 29.0613 26.12 27.447 26.12V29.92V33.72C28.2861 33.72 29.2205 33.8475 30.2624 34.1393L31.287 30.48ZM27.447 29.92V26.12C25.7463 26.12 24.0659 26.3186 22.5699 26.8906L23.927 30.44L25.2842 33.9894C25.6015 33.8681 26.2678 33.72 27.447 33.72V29.92ZM23.927 30.44L22.5342 26.9044C21.2233 27.4209 19.9124 28.2265 18.9444 29.497L21.967 31.8L24.9897 34.103C24.875 34.2535 24.8707 34.1525 25.3198 33.9755L23.927 30.44ZM21.967 31.8L18.8748 29.5913C17.9924 30.8268 17.567 32.2469 17.567 33.72H21.367H25.167C25.167 33.7161 25.1669 33.7605 25.1441 33.8334C25.1207 33.9081 25.0871 33.9696 25.0592 34.0087L21.967 31.8ZM21.367 33.72H17.567C17.567 35.5523 18.2466 37.2988 19.6909 38.6118L22.247 35.8L24.8032 32.9882C24.8949 33.0716 25.0076 33.2124 25.0867 33.3994C25.163 33.5797 25.167 33.7057 25.167 33.72H21.367ZM22.247 35.8L19.8269 38.7297C20.9128 39.6267 22.1786 40.2314 23.4966 40.6341L24.607 37L25.7175 33.3659C25.1155 33.1819 24.808 32.9866 24.6672 32.8703L22.247 35.8ZM24.607 37L23.5241 40.6424C24.581 40.9566 25.7357 41.266 26.9847 41.5713L27.887 37.88L28.7894 34.1887C27.6384 33.9073 26.6064 33.63 25.6899 33.3576L24.607 37ZM27.887 37.88L27.0627 41.5895C28.1782 41.8374 29.2807 42.1223 30.3703 42.4443L31.447 38.8L32.5237 35.1557C31.2667 34.7843 29.9958 34.4559 28.7114 34.1705L27.887 37.88ZM31.447 38.8L30.3924 42.4507C31.3281 42.721 32.1137 43.0582 32.7723 43.4424L34.687 40.16L36.6017 36.8776C35.3403 36.1418 33.9659 35.5723 32.5017 35.1493L31.447 38.8ZM34.687 40.16L32.8113 43.4648C33.2425 43.7095 33.5569 44.0162 33.8046 44.4215L37.047 42.44L40.2895 40.4585C39.3639 38.9438 38.1049 37.7305 36.5627 36.8552L34.687 40.16ZM37.047 42.44L33.8448 44.4859C33.9701 44.6819 34.167 45.1325 34.167 46.08H37.967H41.767C41.767 44.0942 41.3507 42.118 40.2493 40.3941L37.047 42.44ZM37.967 46.08H34.167C34.167 46.8263 33.9733 47.4995 33.5349 48.1784L36.727 50.24L39.9192 52.3016C41.1341 50.4205 41.767 48.3203 41.767 46.08H37.967ZM36.727 50.24L33.5239 48.1955C33.2016 48.7004 32.5976 49.2852 31.4181 49.8282L33.007 53.28L34.596 56.7318C36.7765 55.7281 38.6524 54.2863 39.9301 52.2845L36.727 50.24ZM33.007 53.28L31.4637 49.8075C30.4207 50.2711 28.8703 50.6 26.647 50.6V54.4V58.2C29.5437 58.2 32.2333 57.7823 34.5504 56.7525L33.007 53.28ZM45.1233 54H41.3233V57.8H45.1233V54ZM45.1233 26V22.2H41.3233V26H45.1233ZM65.9233 28L63.6286 31.0289L63.6433 31.0401L63.6581 31.0511L65.9233 28ZM67.5233 37.12L70.6851 39.2279L70.6973 39.2095L70.7094 39.191L67.5233 37.12ZM64.7233 39.56L66.3909 42.9746L66.4068 42.9668L66.4227 42.9588L64.7233 39.56ZM60.9633 40.4L57.5645 38.7006L54.8148 44.2H60.9633V40.4ZM61.6833 38.96V35.16H59.3348L58.2845 37.2606L61.6833 38.96ZM65.9233 39.84L64.3123 43.2816L64.3426 43.2958L64.3731 43.3094L65.9233 39.84ZM68.8833 42.32L65.7096 44.41L65.7272 44.4367L65.7452 44.4631L68.8833 42.32ZM50.3233 49.92H46.5233V53.72H50.3233V49.92ZM63.2033 48.96L61.2117 45.7237H61.2117L63.2033 48.96ZM63.2033 42.84L61.1525 46.0391L61.182 46.058L61.2117 46.0763L63.2033 42.84ZM49.9233 41.84H46.1233V45.64H49.9233V41.84ZM49.9233 37.8V34H46.1233V37.8H49.9233ZM61.8433 36.84L59.7754 33.6519L59.7553 33.665L59.7354 33.6782L61.8433 36.84ZM61.8433 31.04L59.7354 34.2018L59.7553 34.215L59.7754 34.2281L61.8433 31.04ZM50.3233 30.08V26.28H46.5233V30.08H50.3233ZM45.1233 54H48.9233V26H45.1233H41.3233V54H45.1233ZM45.1233 26V29.8H58.2433V26V22.2H45.1233V26ZM58.2433 26V29.8C61.1838 29.8 62.7939 30.3966 63.6286 31.0289L65.9233 28L68.2179 24.971C65.5326 22.9367 62.0228 22.2 58.2433 22.2V26ZM65.9233 28L63.6581 31.0511C64.4415 31.6327 64.7633 32.2554 64.7633 33.28H68.5633H72.3633C72.3633 29.8779 70.9251 26.9807 68.1885 24.9489L65.9233 28ZM68.5633 33.28H64.7633C64.7633 34.1684 64.5643 34.6996 64.3372 35.049L67.5233 37.12L70.7094 39.191C71.8689 37.4071 72.3633 35.3783 72.3633 33.28H68.5633ZM67.5233 37.12L64.3615 35.0121C64.0534 35.4743 63.6362 35.855 63.0239 36.1612L64.7233 39.56L66.4227 42.9588C68.1571 42.0916 69.6065 40.8457 70.6851 39.2279L67.5233 37.12ZM64.7233 39.56L63.0557 36.1454C62.4622 36.4353 61.7842 36.6 60.9633 36.6V40.4V44.2C62.8624 44.2 64.691 43.8047 66.3909 42.9746L64.7233 39.56ZM60.9633 40.4L64.3621 42.0994L65.0821 40.6594L61.6833 38.96L58.2845 37.2606L57.5645 38.7006L60.9633 40.4ZM61.6833 38.96V42.76C62.7762 42.76 63.6281 42.9613 64.3123 43.2816L65.9233 39.84L67.5343 36.3984C65.7118 35.5453 63.737 35.16 61.6833 35.16V38.96ZM65.9233 39.84L64.3731 43.3094C64.9986 43.5889 65.4081 43.952 65.7096 44.41L68.8833 42.32L72.0569 40.23C70.9185 38.5013 69.3546 37.2111 67.4735 36.3706L65.9233 39.84ZM68.8833 42.32L65.7452 44.4631C65.9708 44.7933 66.2033 45.3615 66.2033 46.4H70.0033H73.8033C73.8033 44.1852 73.2891 42.0333 72.0213 40.1769L68.8833 42.32ZM70.0033 46.4H66.2033C66.2033 47.6623 65.8038 48.3503 65.0135 48.923L67.2433 52L69.473 55.077C72.3627 52.9831 73.8033 49.9377 73.8033 46.4H70.0033ZM67.2433 52L65.0135 48.923C64.1055 49.5809 62.3098 50.2 59.0433 50.2V54V57.8C63.0301 57.8 66.7011 57.0857 69.473 55.077L67.2433 52ZM59.0433 54V50.2H45.1233V54V57.8H59.0433V54ZM50.3233 49.92V53.72H58.7233V49.92V46.12H50.3233V49.92ZM58.7233 49.92V53.72C60.9936 53.72 63.299 53.363 65.1949 52.1963L63.2033 48.96L61.2117 45.7237C61.0275 45.837 60.3463 46.12 58.7233 46.12V49.92ZM63.2033 48.96L65.1949 52.1963C67.5527 50.7453 68.5633 48.3679 68.5633 45.88H64.7633H60.9633C60.9633 46.1239 60.9192 46.1196 60.9833 45.993C61.0145 45.9314 61.0586 45.8672 61.1115 45.8107C61.1633 45.7554 61.2035 45.7287 61.2117 45.7237L63.2033 48.96ZM64.7633 45.88H68.5633C68.5633 43.386 67.5283 41.0397 65.1948 39.6037L63.2033 42.84L61.2117 46.0763C61.2088 46.0745 61.172 46.0509 61.1219 45.9979C61.0706 45.9435 61.0256 45.8795 60.9924 45.8149C60.9234 45.6803 60.9633 45.6605 60.9633 45.88H64.7633ZM63.2033 42.84L65.254 39.6409C63.3439 38.4164 61.0133 38.04 58.7233 38.04V41.84V45.64C60.3266 45.64 60.9827 45.9302 61.1525 46.0391L63.2033 42.84ZM58.7233 41.84V38.04H49.9233V41.84V45.64H58.7233V41.84ZM49.9233 41.84H53.7233V37.8H49.9233H46.1233V41.84H49.9233ZM49.9233 37.8V41.6H57.6833V37.8V34H49.9233V37.8ZM57.6833 37.8V41.6C59.8519 41.6 62.104 41.2332 63.9511 40.0018L61.8433 36.84L59.7354 33.6782C59.6626 33.7268 59.1414 34 57.6833 34V37.8ZM61.8433 36.84L63.9112 40.0281C66.0869 38.6168 67.1233 36.3921 67.1233 33.96H63.3233H59.5233C59.5233 34.1077 59.4971 34.0518 59.5734 33.9031C59.6092 33.8335 59.6544 33.7703 59.7012 33.7196C59.7468 33.6704 59.778 33.6503 59.7754 33.6519L61.8433 36.84ZM63.3233 33.96H67.1233C67.1233 31.5349 66.1126 29.2799 63.9112 27.8519L61.8433 31.04L59.7754 34.2281C59.7726 34.2263 59.738 34.203 59.6906 34.1513C59.642 34.0984 59.5977 34.0348 59.5638 33.968C59.4923 33.8269 59.5233 33.7868 59.5233 33.96H63.3233ZM61.8433 31.04L63.9511 27.8782C62.104 26.6468 59.8519 26.28 57.6833 26.28V30.08V33.88C59.1414 33.88 59.6626 34.1532 59.7354 34.2018L61.8433 31.04ZM57.6833 30.08V26.28H50.3233V30.08V33.88H57.6833V30.08ZM50.3233 30.08H46.5233V49.92H50.3233H54.1233V30.08H50.3233Z" fill="#0F172A" mask="url(#path-3-outside-1_396_2)"/>
</svg>
